<svg width="361" height="131" viewBox="0 0 361 131" fill="none" xmlns="http://www.w3.org/2000/svg">
<g filter="url(#filter0_d_22_80)">
<path d="M26.5234 119.746C23.6855 119.746 21.3636 119.275 19.5576 118.332C17.7517 117.389 16.4187 116.304 15.5587 115.079C14.7848 113.853 14.3978 112.863 14.3978 112.108C14.3978 109.846 14.9138 108.29 15.9457 107.441C16.9777 106.593 19.1276 106.168 22.3956 106.168C24.2875 106.168 26.9104 105.791 30.2643 105.037C33.7042 104.188 37.4881 103.01 41.616 101.501C45.7439 99.898 49.9578 97.965 54.2577 95.7021C58.5576 93.4391 62.5564 90.8462 66.2543 87.9232C69.9522 85.0002 73.0482 81.7943 75.5421 78.3056C78.122 74.7226 79.756 70.9039 80.444 66.8494C77.95 66.2837 75.4131 65.9065 72.8332 65.718C70.3392 65.4351 67.8453 65.2936 65.3514 65.2936C57.7836 65.2936 50.0868 66.1894 42.261 67.9809C34.4352 69.6781 26.5234 71.6111 18.5257 73.7797C18.2677 76.4198 18.0527 78.8242 17.8807 80.9929C17.7087 83.1615 17.5797 85.4716 17.4937 87.9232C17.2357 93.9577 16.5907 97.965 15.5587 99.9451C14.6128 101.831 13.5378 102.774 12.3338 102.774C10.4419 102.774 8.97993 101.548 7.94796 99.0965C6.91599 96.645 6.4 92.732 6.4 87.3574C6.4 70.1967 7.94796 55.3932 11.0439 42.947C14.1398 30.5008 18.7407 20.9304 24.8465 14.2358C30.9523 7.54122 38.4341 4.19394 47.2919 4.19394C53.5697 4.19394 58.4286 6.03259 61.8685 9.70989C65.3944 13.3872 67.1573 18.7145 67.1573 25.692C67.1573 30.5008 66.3833 35.4981 64.8354 40.6841C63.2874 45.7757 61.0085 50.443 57.9986 54.6861C60.3205 54.2146 62.5994 53.8846 64.8354 53.696C67.0713 53.4132 69.1353 53.2717 71.0272 53.2717C77.563 53.2717 82.6369 54.4504 86.2488 56.8076C89.8607 59.1648 91.6666 62.6535 91.6666 67.2737C91.6666 72.6482 90.2907 77.6927 87.5388 82.4072C84.8728 87.1217 81.3039 91.4119 76.8321 95.2778C72.4462 99.1437 67.6733 102.632 62.5134 105.744C57.3536 108.761 52.3227 111.307 47.4209 113.381C42.519 115.456 38.1761 117.012 34.3922 118.049C30.6943 119.18 28.0714 119.746 26.5234 119.746ZM19.6866 61.6164C29.2324 59.7306 36.6282 57.2319 41.874 54.1203C47.1199 51.0088 50.7748 47.3786 52.8387 43.2299C54.9027 38.9868 55.9346 34.2252 55.9346 28.945C55.9346 27.2478 55.6766 25.5034 55.1606 23.7119C54.6447 21.8261 53.6557 20.2232 52.1937 18.9031C50.7318 17.5831 48.6248 16.923 45.8729 16.923C38.8211 16.923 33.1453 20.4589 28.8454 27.5306C24.6315 34.6024 21.5786 45.9643 19.6866 61.6164Z" fill="#8B2C2C"/>
<path d="M114.657 113.381C109.932 113.381 106.208 110.988 103.485 106.2C100.762 101.412 99.4 95.1879 99.4 87.5275C99.4 84.7613 99.6803 81.8354 100.241 78.75C100.882 75.5582 101.683 72.6855 102.644 70.1321C102.083 69.3873 101.643 68.3765 101.322 67.0998C101.002 65.7167 100.842 64.0144 100.842 61.9929C100.842 55.7156 101.642 49.9703 103.244 44.757C104.846 39.5437 106.968 35.0219 109.611 31.1917C112.254 27.2551 115.178 24.2228 118.381 22.095C121.665 19.9671 124.989 18.9031 128.352 18.9031C133.879 18.9031 138.364 21.563 141.807 26.8827C145.251 32.096 146.973 40.0756 146.973 50.8215C146.973 56.4604 146.332 62.2057 145.051 68.0574C143.85 73.909 142.168 79.548 140.005 84.9741C137.923 90.4002 135.48 95.2411 132.677 99.4969C129.954 103.753 127.031 107.157 123.907 109.711C120.864 112.158 117.781 113.381 114.657 113.381ZM110.572 64.7059C111.053 65.5571 111.293 66.6742 111.293 68.0574C111.293 69.6533 111.053 71.2492 110.572 72.8451C110.172 74.441 109.732 76.6221 109.251 79.3884C108.77 82.1546 108.53 86.0912 108.53 91.1982C108.53 96.3051 110.052 98.8586 113.095 98.8586C116.459 98.8586 119.583 97.1031 122.466 93.592C125.349 89.9746 127.912 85.3465 130.154 79.7076C132.397 74.0686 134.119 68.0574 135.32 61.6737C136.602 55.1836 137.242 49.066 137.242 43.3207C137.242 39.5969 136.722 36.9902 135.681 35.5007C134.639 33.9047 132.757 33.1068 130.034 33.1068C127.231 33.1068 124.308 34.3835 121.264 36.937C118.301 39.3841 115.818 42.7355 113.816 46.9913C111.814 51.247 110.813 56.0348 110.813 61.3545C110.813 62.5249 110.733 63.642 110.572 64.7059Z" fill="#8B2C2C"/>
<path d="M172.943 113.381C168.398 113.381 164.817 110.937 162.198 106.049C159.579 101.161 158.27 94.8066 158.27 86.9857C158.27 84.1615 158.539 81.1743 159.078 78.0242C159.695 74.7655 160.465 71.8326 161.389 69.2256C160.85 68.4653 160.426 67.4333 160.118 66.1298C159.81 64.7177 159.656 62.9797 159.656 60.9159C159.656 54.5071 160.426 48.6413 161.967 43.3187C163.507 37.9962 165.549 33.3796 168.09 29.4692C170.632 25.4501 173.444 22.3543 176.525 20.1818C179.683 18.0093 182.879 16.923 186.114 16.923C191.429 16.923 195.742 19.6387 199.055 25.0699C202.367 30.3925 204.023 38.5393 204.023 49.5103C204.023 55.2674 203.406 61.1331 202.174 67.1075C201.019 73.0818 199.401 78.8389 197.321 84.3787C195.319 89.9186 192.97 94.861 190.274 99.2059C187.655 103.551 184.843 107.027 181.839 109.634C178.912 112.132 175.947 113.381 172.943 113.381ZM169.015 63.6858C169.477 64.5548 169.708 65.6953 169.708 67.1075C169.708 68.7368 169.477 70.3662 169.015 71.9956C168.63 73.6249 168.206 75.8517 167.744 78.6759C167.282 81.5002 167.051 85.5193 167.051 90.7332C167.051 95.9472 168.514 98.5542 171.441 98.5542C174.676 98.5542 177.68 96.7619 180.453 93.1773C183.226 89.4841 185.691 84.7589 187.847 79.0018C190.004 73.2447 191.66 67.1075 192.815 60.59C194.048 53.9639 194.664 47.718 194.664 41.8523C194.664 38.0505 194.163 35.3892 193.162 33.8684C192.161 32.2391 190.351 31.4244 187.732 31.4244C185.036 31.4244 182.224 32.7279 179.298 35.3349C176.448 37.8332 174.06 41.2549 172.134 45.5999C170.209 49.9448 169.246 54.8329 169.246 60.2641C169.246 61.459 169.169 62.5996 169.015 63.6858Z" fill="#8B2C2C"/>
<path d="M212.601 63.66C210.873 63.5017 210.073 62.1171 210.201 59.5059C210.265 58.8729 210.617 58.1212 211.257 57.2509C211.897 56.3014 212.633 55.7871 213.465 55.7079C215.449 55.4706 217.881 55.1145 220.761 54.6397C223.705 54.0859 226.937 53.4529 230.457 52.7407C231.097 48.8636 231.865 44.7887 232.761 40.5159C233.657 36.2432 234.649 32.0891 235.737 28.0537C236.825 23.9392 237.977 20.2203 239.193 16.8971C240.409 13.5738 241.689 10.9627 243.033 9.06369C243.737 8.19331 244.377 7.59988 244.953 7.28338C245.529 6.88775 246.041 6.68994 246.489 6.68994C247.385 6.68994 248.089 7.16469 248.601 8.11419C249.177 9.06369 249.465 10.1319 249.465 11.3188C249.465 11.9518 249.369 12.5848 249.177 13.2178C247.897 17.6488 246.521 23.1084 245.049 29.5966C243.577 36.0849 242.009 43.1666 240.345 50.8417C246.233 49.6549 252.121 48.3889 258.009 47.0437C263.897 45.6986 268.953 44.4722 273.177 43.3644C274.393 42.7314 275.321 42.8501 275.961 43.7205C276.665 44.5909 277.017 45.4612 277.017 46.3316C277.017 47.4394 276.761 48.2702 276.249 48.824C275.801 49.3779 275.321 49.8527 274.809 50.2483L274.713 50.367C273.433 51 271.513 51.7517 268.953 52.6221C266.393 53.4133 263.449 54.2837 260.121 55.2332C256.793 56.1036 253.241 56.9739 249.465 57.8443C245.753 58.7147 242.073 59.5059 238.425 60.2181C236.953 67.1811 235.449 74.3419 233.913 81.7005C232.441 88.98 230.969 96.1408 229.497 103.183C228.857 106.031 228.121 107.812 227.289 108.524C226.521 109.315 225.689 109.711 224.793 109.711C223.769 109.711 222.873 109.236 222.105 108.287C221.401 107.337 221.305 105.398 221.817 102.471L228.825 61.9984C224.985 62.7105 221.593 63.2248 218.649 63.5413C215.769 63.8578 213.753 63.8974 212.601 63.66Z" fill="#8B2C2C"/>
<path d="M261.609 110.928C260.053 110.928 258.85 110.43 258.001 109.435C257.152 108.516 256.728 106.181 256.728 102.429C256.728 98.984 257.294 94.5051 258.425 88.9926C259.557 83.4035 261.078 77.2019 262.988 70.3878C264.898 63.5737 267.056 56.5299 269.461 49.2565C271.867 41.9064 274.378 34.7095 276.996 27.6657C279.684 20.5454 282.266 14.0376 284.742 8.14222C285.662 5.99846 286.617 4.50548 287.607 3.66329C288.597 2.8211 289.765 2.4 291.109 2.4C292.028 2.4 292.807 2.70625 293.443 3.31876C294.151 3.8547 294.504 4.77345 294.504 6.07502C294.504 6.5344 294.045 8.02737 293.125 10.5539C292.276 13.0805 291.073 16.411 289.517 20.5454C288.031 24.6798 286.369 29.3118 284.53 34.4416C282.69 39.5713 280.816 44.9689 278.906 50.6346C276.996 56.3002 275.192 62.0042 273.494 67.7464C271.796 73.4121 270.346 78.848 269.143 84.0543C267.94 89.2606 267.127 93.9309 266.702 98.0653C268.4 95.845 270.346 93.0121 272.539 89.5668C274.732 86.1215 277.066 82.4082 279.542 78.4269C282.018 74.4456 284.53 70.5027 287.076 66.598C289.623 62.6932 292.135 59.1331 294.611 55.9174C297.087 52.7018 299.386 50.1369 301.508 48.2229C303.701 46.2322 305.611 45.2369 307.238 45.2369C309.926 45.2369 312.084 46.1557 313.711 47.9932C315.409 49.7541 316.258 52.6635 316.258 56.7213C316.258 59.0182 315.834 61.7745 314.985 64.9901C314.206 68.2058 313.287 71.5746 312.226 75.0964C311.164 78.6183 310.209 81.9871 309.361 85.2027C308.582 88.4184 308.193 91.1746 308.193 93.4715C308.193 96.6106 309.29 98.1801 311.483 98.1801C314.879 98.1801 318.274 97.3762 321.67 95.7684C325.136 94.1606 328.426 92.17 331.539 89.7965C334.651 87.3465 337.516 84.8965 340.134 82.4465C342.751 79.9199 344.98 77.7761 346.819 76.0152C348.8 74.1011 350.462 73.1441 351.806 73.1441C353.504 73.1441 354.353 74.1011 354.353 76.0152C354.353 76.5511 354.247 77.1636 354.035 77.8527C353.823 78.5418 353.257 79.4222 352.337 80.4941C351.205 81.8722 349.578 83.6715 347.456 85.8918C345.404 88.1121 342.999 90.4856 340.24 93.0121C337.552 95.5387 334.616 97.9122 331.432 100.132C328.32 102.353 325.101 104.19 321.776 105.645C318.522 107.023 315.338 107.712 312.226 107.712C307.981 107.712 304.692 106.411 302.357 103.808C300.093 101.128 298.961 97.4528 298.961 92.7825C298.961 89.8731 299.386 86.3512 300.235 82.2168C301.084 78.0824 302.145 73.7183 303.418 69.1245C304.762 64.4542 306.106 59.8987 307.45 55.4581C305.187 57.1424 302.711 59.669 300.022 63.0378C297.405 66.33 294.646 70.0816 291.745 74.2925C288.845 78.4269 285.945 82.6379 283.044 86.9254C280.214 91.2129 277.455 95.1942 274.767 98.8692C272.15 102.468 269.709 105.377 267.445 107.597C265.181 109.818 263.236 110.928 261.609 110.928Z" fill="#8B2C2C"/>
</g>
<defs>
<filter id="filter0_d_22_80" x="-4.76837e-07" y="1.43051e-06" width="360.753" height="130.146" filterUnits="userSpaceOnUse" color-interpolation-filters="sRGB">
<feFlood flood-opacity="0" result="BackgroundImageFix"/>
<feColorMatrix in="SourceAlpha" type="matrix" values="0 0 0 0 0 0 0 0 0 0 0 0 0 0 0 0 0 0 127 0" result="hardAlpha"/>
<feOffset dy="4"/>
<feGaussianBlur stdDeviation="3.2"/>
<feComposite in2="hardAlpha" operator="out"/>
<feColorMatrix type="matrix" values="0 0 0 0 0.0740381 0 0 0 0 0.0483384 0 0 0 0 0.0483384 0 0 0 0.25 0"/>
<feBlend mode="normal" in2="BackgroundImageFix" result="effect1_dropShadow_22_80"/>
<feBlend mode="normal" in="SourceGraphic" in2="effect1_dropShadow_22_80" result="shape"/>
</filter>
</defs>
</svg>
