<svg width="513" height="256" viewBox="0 0 513 256" fill="none" xmlns="http://www.w3.org/2000/svg">
<g filter="url(#filter0_i_19_71)">
<path d="M1.52378 85.932C6.02364 86.0676 9.96101 86.1354 13.3359 86.1354C16.7108 85.9998 19.4529 85.932 21.5622 85.932H27.6792C29.226 85.7965 31.1244 85.7287 33.3743 85.7287C35.343 85.7287 37.7336 85.7287 40.546 85.7287C43.3584 85.7287 46.5927 85.7965 50.2488 85.932C51.3738 89.7278 52.6394 93.4558 54.0456 97.116C55.5924 100.641 56.9283 103.826 58.0533 106.673C59.4595 110.062 60.8657 113.248 62.2719 116.23C63.6781 119.213 65.3655 122.805 67.3342 127.008C69.0217 130.532 71.0607 134.87 73.4512 140.022C75.8418 145.037 78.6542 150.799 81.8885 157.306C83.4353 153.103 84.8415 149.24 86.1071 145.715C87.5133 142.191 88.7086 139.14 89.6929 136.565C90.8179 133.582 91.7319 130.871 92.435 128.431C93.1381 125.991 93.9115 123.008 94.7552 119.484C95.4584 116.501 96.2318 112.909 97.0755 108.707C98.0598 104.504 99.0442 99.6239 100.029 94.0658C104.107 94.0658 107.763 94.0658 110.997 94.0658C114.231 94.0658 117.044 93.998 119.434 93.8624C122.106 93.8624 124.497 93.7947 126.606 93.6591C128.856 93.6591 131.879 93.5236 135.676 93.2524C138.91 92.9813 143.199 92.7779 148.543 92.6424C154.027 92.3713 148.121 94.8792 156.136 94.4725C153.183 96.5059 163.448 95.6926 161.62 97.726C159.933 99.6239 158.597 101.318 157.613 102.81C156.488 104.572 155.785 106.266 155.503 107.893C155.222 109.249 154.941 112.367 154.66 117.247C154.519 122.127 154.308 127.956 154.027 134.735C153.886 141.377 153.746 148.494 153.605 156.086C153.605 163.677 153.675 170.862 153.816 177.64C153.957 184.418 154.167 190.315 154.449 195.331C154.871 200.211 155.433 203.329 156.136 204.685C157.12 206.312 158.456 208.21 160.144 210.379C161.691 212.276 163.659 214.445 166.05 216.886C168.581 219.326 171.886 222.037 175.964 225.019C169.495 225.291 164.081 225.494 159.722 225.629C155.503 225.765 151.988 225.901 149.175 226.036C145.941 226.172 143.34 226.239 141.371 226.239C139.262 226.239 136.379 226.307 132.723 226.443C129.489 226.578 125.2 226.782 119.856 227.053C114.512 227.188 107.622 227.459 99.1848 227.866C101.153 225.697 102.982 223.528 104.669 221.359C106.356 219.19 107.763 217.225 108.888 215.462C110.294 213.429 111.489 211.463 112.473 209.565C113.458 206.99 114.231 202.313 114.794 195.534C115.356 189.705 115.778 181.368 116.059 170.523C116.341 159.543 116.341 144.834 116.059 126.397C113.387 130.6 110.997 134.802 108.888 139.005C106.919 143.072 105.161 146.8 103.614 150.189C101.927 154.12 100.38 157.916 98.9739 161.576C97.5677 165.372 96.0911 169.574 94.5443 174.183C93.1381 178.115 91.4507 182.792 89.482 188.214C87.6539 193.637 85.5446 199.601 83.154 206.108L75.1387 206.515C74.0137 201.093 72.8887 196.212 71.7638 191.874C70.6388 187.401 69.5138 183.605 68.3889 180.487C67.1233 176.827 65.8577 173.573 64.5921 170.727C63.1859 167.88 61.6391 164.694 59.9516 161.169C58.4048 158.187 56.5064 154.662 54.2565 150.595C52.1472 146.529 49.6863 141.987 46.8739 136.971C45.4677 150.799 44.624 162.051 44.3427 170.727C44.0615 179.267 44.0615 185.91 44.3427 190.654C44.624 196.348 45.0459 200.483 45.6083 203.058C46.4521 205.363 47.788 207.938 49.616 210.785C51.1629 213.225 53.2722 216.14 55.944 219.529C58.7564 222.783 62.3422 226.443 66.7014 230.51C63.6078 230.51 60.3735 230.51 56.9986 230.51C53.6237 230.51 50.5301 230.577 47.7176 230.713C44.3427 230.849 41.0382 230.916 37.8039 230.916C34.429 231.052 30.4916 231.255 25.9918 231.526C22.0544 231.798 17.3436 232.069 11.8594 232.34C20.5708 287.039 7.64075 227.595 0.469104 228.273C-1.49958 230.035 3.56276 226.375 0.469104 228.273C2.43779 226.375 3.98464 224.68 5.1096 223.189C6.51581 221.427 7.57046 219.665 8.27356 217.902C8.69543 216.818 9.04698 214.445 9.32822 210.785C9.75008 207.125 10.1016 202.652 10.3829 197.365C10.8047 192.078 11.086 186.181 11.2266 179.674C11.5078 173.167 11.7188 166.592 11.8594 159.949C12.1406 153.171 12.3516 146.596 12.4922 140.225C12.6328 133.718 12.7031 127.889 12.7031 122.737C12.8437 117.45 12.914 113.045 12.914 109.52C12.914 105.995 12.914 103.759 12.914 102.81C12.4922 100.776 11.8594 98.7427 11.0157 96.7093C10.3126 94.947 9.1876 93.1169 7.64077 91.219C6.09394 89.3211 4.05495 87.5588 1.52378 85.932Z" fill="#F5E9DC"/>
<path d="M179.612 86.9001C187.194 87.3321 193.564 87.6921 198.72 87.9801C204.027 88.1241 208.425 88.2681 211.913 88.4121C215.856 88.5561 219.192 88.5561 221.922 88.4121C224.651 88.2681 228.367 87.9081 233.068 87.3321C237.011 86.9001 242.243 86.2521 248.763 85.3881C255.436 84.3801 263.701 83.084 273.558 81.5C270.07 84.8121 267.34 87.8361 265.369 90.5722C263.549 93.1642 262.108 95.3963 261.047 97.2683C259.834 99.5723 259 101.516 258.545 103.1C258.241 104.54 258.545 108.14 259.454 113.901C260.364 119.661 261.653 126.501 263.322 134.421C264.99 142.197 266.809 150.549 268.781 159.477C270.752 168.262 272.724 176.542 274.695 184.318C276.666 191.95 278.41 198.502 279.927 203.974C281.595 209.302 282.808 212.47 283.566 213.478C285.841 216.502 287.282 218.518 287.888 219.526C288.495 220.39 289.557 221.182 291.073 221.902C291.68 222.191 290.163 228.455 291.528 229.031C292.741 229.607 223.742 210.336 261.047 194.686C287.888 199 290.315 227.879 293.5 229.031C287.586 229.319 295.774 228.887 291.528 229.031C287.282 229.031 283.794 229.103 281.064 229.247C277.88 229.391 275.15 229.535 272.875 229.679C270.601 229.679 267.871 229.823 264.686 230.111C261.957 230.399 252.024 228.959 247.626 229.247C243.38 229.535 234.5 227.087 234.5 229.679C237.533 227.663 244.441 228.023 246.261 226.439C248.233 224.711 249.749 223.271 250.811 222.118C252.024 220.678 252.858 219.382 253.313 218.23C253.616 216.934 253.844 214.99 253.995 212.398C254.147 210.094 254.147 207.07 253.995 203.326C253.844 199.438 253.464 194.398 252.858 188.206L193.033 194.038C191.516 196.486 190.379 198.646 189.621 200.518C188.862 202.246 188.332 203.758 188.028 205.054C187.573 206.638 187.422 207.934 187.573 208.942C187.877 210.094 188.408 211.462 189.166 213.046C189.924 214.486 190.986 216.214 192.35 218.23C193.867 220.102 196.066 222.334 198.947 224.927C195.156 224.783 191.289 224.711 187.346 224.711C183.403 224.711 179.764 224.783 176.427 224.927C172.485 225.071 168.618 225.215 164.826 225.359C161.035 225.503 156.713 225.719 151.86 226.007C147.766 226.295 142.989 226.655 137.53 227.087C131.919 227.375 125.929 227.807 119.56 228.383C123.502 226.655 126.839 224.927 129.568 223.199C132.298 221.326 134.573 219.598 136.392 218.014C138.515 216.286 140.335 214.63 141.852 213.046C142.913 211.606 145.036 208.294 148.221 203.11C151.406 197.782 154.969 191.518 158.912 184.318C163.007 177.118 167.253 169.414 171.65 161.205C176.2 152.997 180.294 145.293 183.934 138.093C187.573 130.749 190.531 124.413 192.805 119.085C195.08 113.757 196.217 110.301 196.217 108.716C195.914 106.844 180.825 89.2041 179.612 86.9001C178.55 84.8841 191.213 98.1323 188.938 95.5402C186.815 92.9482 183.706 90.0682 179.612 86.9001ZM250.128 172.222C249.218 167.182 248.384 162.861 247.626 159.261C246.868 155.517 246.261 152.421 245.806 149.973C245.2 147.093 244.745 144.573 244.441 142.413C243.986 140.397 243.456 137.805 242.849 134.637C242.242 131.901 241.484 128.517 240.574 124.485C239.816 120.309 238.83 115.341 237.617 109.58C228.973 125.997 222.225 138.741 217.372 147.813C212.671 156.741 209.259 163.293 207.136 167.47C204.558 172.366 203.117 175.246 202.814 176.11L250.128 172.222Z" fill="#F5E9DC"/>
<path d="M214.638 3.60471C229.832 5.35244 242.984 6.66324 254.096 7.53711C265.208 8.19251 274.392 8.73868 281.649 9.17562C290.039 9.61255 297.069 9.72179 302.739 9.50332C308.635 9.28485 316.685 8.73868 326.89 7.86481C335.507 7.20941 346.846 6.33555 360.905 5.24321C374.965 3.93241 392.54 2.18467 413.63 0C413.857 5.02474 413.97 9.94025 413.97 14.7465C414.197 19.3343 414.424 23.376 414.65 26.8715C414.877 31.0223 414.99 34.8455 414.99 38.341C414.99 42.0549 414.764 46.752 414.31 52.4321C413.857 57.2384 413.063 63.3555 411.929 70.7833C411.022 77.9927 409.548 86.6222 407.507 96.6717C404.332 84.8745 401.271 75.3711 398.323 68.1617C395.375 60.7338 392.653 54.8352 390.159 50.4659C387.438 45.4412 384.716 41.618 381.995 38.9964C379.047 37.0302 375.532 35.3917 371.45 34.0809C367.822 32.9885 363.173 32.1147 357.504 31.4593C352.061 30.8039 345.598 30.9131 338.115 31.787C336.981 60.6246 336.187 84.0006 335.734 101.915C335.28 119.829 334.94 133.811 334.713 143.861C334.487 155.876 334.373 164.506 334.373 169.749C334.6 177.177 335.847 184.495 338.115 191.705C339.929 197.822 342.877 204.157 346.959 210.712C351.041 217.266 356.937 223.055 364.647 228.08H323.148C319.293 228.08 299.169 228.594 293.5 229.031C288.738 229.468 298.556 228.594 291.073 229.031C283.816 229.468 274.438 229.018 264.686 230.111C268.088 224.43 271.104 221.526 273.145 216.938C275.186 212.35 276.773 208.418 277.907 205.141C279.268 201.208 280.288 197.713 280.969 194.654C281.195 190.285 281.762 181.437 282.669 168.11C282.896 162.649 283.123 155.876 283.35 147.793C283.803 139.71 284.257 130.097 284.71 118.955C285.391 107.814 285.957 95.0332 286.411 80.6144C287.091 65.9771 287.772 49.4828 288.452 31.1316C284.37 30.0392 280.515 30.1485 276.887 31.4593C273.258 32.5516 270.084 33.9716 267.362 35.7194C264.187 37.904 261.126 40.5256 258.178 43.5842C255.23 47.2981 251.942 52.1044 248.313 58.003C245.139 63.0277 241.51 69.691 237.428 77.9928C233.347 86.076 228.698 96.1255 223.482 108.141C222.348 95.4701 221.554 85.0929 221.101 77.0096C220.647 68.7079 220.307 62.2631 220.08 57.6753C219.854 52.2136 219.74 48.172 219.74 45.5504C219.74 43.1473 219.513 39.9795 219.06 36.0471C218.606 32.7701 218.039 28.51 217.359 23.2667C216.679 17.8051 215.772 11.2511 214.638 3.60471Z" fill="#F5E9DC"/>
<path d="M335.734 79.4928C342.352 80.0755 347.93 80.5126 352.468 80.8039C357.006 80.9496 360.598 81.0953 363.246 81.241C366.46 81.3867 369.013 81.4595 370.903 81.4595C374.118 81.4595 377.805 81.3867 381.965 81.241C385.557 81.0953 389.717 80.8768 394.444 80.5854C399.361 80.1484 404.655 79.4928 410.327 78.6187C407.68 80.8039 405.506 82.9163 403.804 84.9559C402.102 86.8498 400.779 88.5979 399.833 90.2004C398.699 91.9486 397.753 93.5511 396.997 95.0079C396.241 96.9018 395.39 99.8154 394.444 103.749C393.499 107.1 392.459 111.834 391.325 117.953C390.379 124.071 389.15 132.084 387.637 141.99C394.066 142.136 399.644 142.209 404.371 142.209C409.098 142.063 413.069 141.99 416.284 141.99H425.643C428.29 141.845 431.316 141.699 434.719 141.553C440.392 141.408 448.995 140.971 460.529 140.242C461.475 133.541 461.947 127.786 461.947 122.979C462.136 118.026 462.042 113.874 461.664 110.523C461.286 106.735 460.718 103.53 459.962 100.908C459.395 99.4512 458.544 97.7031 457.409 95.6635C456.464 93.9153 455.14 91.8029 453.439 89.3264C451.926 86.7041 449.846 83.5719 447.199 79.9298C452.115 80.5126 456.464 80.9496 460.246 81.241C464.216 81.3867 467.525 81.5324 470.173 81.6781C473.198 81.8237 475.75 81.8966 477.83 81.8966C479.91 81.8966 482.652 81.8237 486.056 81.6781C488.892 81.5324 492.39 81.4595 496.55 81.4595C500.71 81.3138 505.815 81.0953 511.865 80.8039C510.353 82.8435 509.029 84.9559 507.895 87.1411C506.76 89.3263 505.815 91.293 505.058 93.0412C504.302 95.0808 503.546 97.1203 502.789 99.1599C501.844 102.219 500.993 106.662 500.237 112.49C499.67 118.317 499.102 124.8 498.535 131.938C498.157 139.077 497.779 146.506 497.401 154.228C497.211 161.949 497.022 169.233 496.833 176.08C496.833 182.927 496.928 189.046 497.117 194.436C497.306 199.68 497.684 203.395 498.251 205.58C498.819 208.203 499.764 210.898 501.088 213.666C502.222 216.142 503.735 218.837 505.626 221.751C507.517 224.519 509.975 227.141 513 229.618L444.646 233.551C447.482 231.512 449.751 229.545 451.453 227.651C453.155 225.612 454.479 223.864 455.424 222.407C456.369 220.804 457.031 219.275 457.409 217.818C457.598 216.07 457.882 213.01 458.26 208.64C458.638 204.998 459.017 199.826 459.395 193.125C459.773 186.423 460.151 177.537 460.529 166.465C457.882 166.465 454.668 166.538 450.886 166.683C447.293 166.683 443.89 166.756 440.675 166.902C436.894 167.048 432.923 167.12 428.763 167.12C424.603 167.266 420.254 167.412 415.716 167.557C411.935 167.849 407.68 168.14 402.953 168.432C398.415 168.577 393.877 168.796 389.339 169.087C388.961 175.206 388.961 180.596 389.339 185.258C389.717 189.774 390.285 193.635 391.041 196.84C391.797 200.627 392.743 203.905 393.877 206.673C395.012 209.295 396.241 211.918 397.564 214.54C398.699 216.871 400.022 219.347 401.535 221.97C403.237 224.592 404.939 226.923 406.64 228.962C403.048 228.671 399.739 228.453 396.713 228.307C393.688 228.015 391.041 227.724 388.772 227.433C386.125 227.287 383.572 227.141 381.114 226.996C378.656 226.996 375.725 226.923 372.322 226.777C369.296 226.631 365.515 226.559 360.977 226.559C356.439 226.413 351.144 226.34 345.094 226.34C348.686 223.572 351.522 220.877 353.602 218.255C355.871 215.487 357.479 213.01 358.424 210.825C359.558 208.203 360.315 205.799 360.693 203.614C360.882 201.72 360.977 198.151 360.977 192.906C361.166 187.662 361.166 181.689 360.977 174.987C360.977 168.14 360.882 161.002 360.693 153.572C360.504 145.997 360.22 138.931 359.842 132.375C359.653 125.82 359.369 120.211 358.991 115.549C358.802 110.742 358.613 107.755 358.424 106.59C357.479 103.967 356.06 101.127 354.17 98.0673C352.468 95.5907 350.199 92.7499 347.362 89.5449C344.526 86.1942 340.65 82.8435 335.734 79.4928Z" fill="#F5E9DC"/>
</g>
<defs>
<filter id="filter0_i_19_71" x="0" y="0" width="513" height="259.5" filterUnits="userSpaceOnUse" color-interpolation-filters="sRGB">
<feFlood flood-opacity="0" result="BackgroundImageFix"/>
<feBlend mode="normal" in="SourceGraphic" in2="BackgroundImageFix" result="shape"/>
<feColorMatrix in="SourceAlpha" type="matrix" values="0 0 0 0 0 0 0 0 0 0 0 0 0 0 0 0 0 0 127 0" result="hardAlpha"/>
<feOffset dy="4"/>
<feGaussianBlur stdDeviation="2"/>
<feComposite in2="hardAlpha" operator="arithmetic" k2="-1" k3="1"/>
<feColorMatrix type="matrix" values="0 0 0 0 0.5625 0 0 0 0 0.0730168 0 0 0 0 0.0730168 0 0 0 1 0"/>
<feBlend mode="luminosity" in2="shape" result="effect1_innerShadow_19_71"/>
</filter>
</defs>
</svg>
