<svg width="356" height="127" viewBox="0 0 356 127" fill="none" xmlns="http://www.w3.org/2000/svg">
<path d="M20.5888 127C17.6853 127 15.3096 126.49 13.4619 125.469C11.6142 124.449 10.2504 123.275 9.37055 121.949C8.57867 120.622 8.18274 119.551 8.18274 118.734C8.18274 116.285 8.71065 114.601 9.76649 113.683C10.8223 112.764 13.022 112.305 16.3655 112.305C18.3012 112.305 20.9848 111.897 24.4162 111.081C27.9357 110.162 31.8071 108.887 36.0304 107.254C40.2538 105.519 44.5651 103.427 48.9644 100.978C53.3638 98.5289 57.4551 95.7226 61.2385 92.5592C65.0219 89.3957 68.1895 85.9261 70.7411 82.1504C73.3807 78.2726 75.0524 74.1397 75.7563 69.7517C73.2047 69.1394 70.6091 68.7312 67.9695 68.5271C65.4179 68.221 62.8663 68.0679 60.3147 68.0679C52.5719 68.0679 44.6971 69.0374 36.6903 70.9762C28.6836 72.8131 20.5888 74.905 12.4061 77.2521C12.1421 80.1094 11.9222 82.7116 11.7462 85.0587C11.5702 87.4058 11.4382 89.906 11.3502 92.5592C11.0863 99.0902 10.4264 103.427 9.37055 105.57C8.4027 107.611 7.30287 108.632 6.07106 108.632C4.13536 108.632 2.63959 107.305 1.58375 104.652C0.527918 101.999 0 97.7636 0 91.9469C0 73.3744 1.58376 57.353 4.75127 43.8828C7.91878 30.4126 12.626 20.0548 18.8731 12.8095C25.1201 5.56419 32.7749 1.94152 41.8375 1.94152C48.2605 1.94152 53.2318 3.93144 56.7512 7.91127C60.3587 11.8911 62.1624 17.6567 62.1624 25.2082C62.1624 30.4126 61.3705 35.8211 59.7868 41.4337C58.203 46.9442 55.8714 51.9955 52.7918 56.5876C55.1675 56.0774 57.4991 55.7202 59.7868 55.5162C62.0744 55.21 64.1861 55.0569 66.1218 55.0569C72.8088 55.0569 77.9999 56.3325 81.6954 58.8837C85.3908 61.4349 87.2385 65.2106 87.2385 70.2109C87.2385 76.0276 85.8307 81.4871 83.0152 86.5894C80.2876 91.6918 76.6362 96.3349 72.0609 100.519C67.5736 104.703 62.6903 108.478 57.4111 111.846C52.1319 115.112 46.9847 117.867 41.9695 120.112C36.9543 122.357 32.511 124.041 28.6396 125.163C24.8562 126.388 22.1726 127 20.5888 127ZM13.5939 64.0881C23.3604 62.0472 30.9272 59.3429 36.2944 55.9754C41.6616 52.6078 45.401 48.679 47.5126 44.1889C49.6243 39.5968 50.6802 34.4435 50.6802 28.7288C50.6802 26.892 50.4162 25.0041 49.8883 23.0652C49.3604 21.0243 48.3485 19.2895 46.8528 17.8608C45.357 16.4322 43.2013 15.7179 40.3858 15.7179C33.1709 15.7179 27.3638 19.5446 22.9644 27.1981C18.6531 34.8517 15.5296 47.1483 13.5939 64.0881Z" fill="#8B2C2C" fill-opacity="0.2"/>
<path d="M110.761 120.112C105.926 120.112 102.116 117.521 99.3297 112.339C96.5437 107.158 95.1507 100.422 95.1507 92.131C95.1507 89.1371 95.4375 85.9706 96.0111 82.6313C96.6666 79.1769 97.4861 76.0679 98.4694 73.3044C97.8958 72.4983 97.4451 71.4044 97.1173 70.0227C96.7896 68.5257 96.6257 66.6834 96.6257 64.4956C96.6257 57.7019 97.4451 51.4839 99.0839 45.8417C100.723 40.1995 102.894 35.3057 105.598 31.1604C108.302 26.8999 111.293 23.6182 114.571 21.3153C117.93 19.0123 121.331 17.8608 124.773 17.8608C130.427 17.8608 135.015 20.7395 138.539 26.4969C142.062 32.1391 143.824 40.7752 143.824 52.4051C143.824 58.5079 143.168 64.7259 141.857 71.059C140.628 77.3921 138.908 83.4949 136.695 89.3675C134.565 95.24 132.065 100.479 129.197 105.085C126.411 109.691 123.421 113.376 120.225 116.139C117.111 118.788 113.956 120.112 110.761 120.112ZM106.582 67.4318C107.073 68.353 107.319 69.5621 107.319 71.059C107.319 72.7862 107.073 74.5134 106.582 76.2406C106.172 77.9678 105.721 80.3284 105.23 83.3222C104.738 86.316 104.492 90.5765 104.492 96.1036C104.492 101.631 106.049 104.394 109.163 104.394C112.604 104.394 115.8 102.494 118.75 98.6944C121.7 94.7794 124.322 89.7705 126.616 83.6676C128.911 77.5648 130.672 71.059 131.902 64.1502C133.213 57.1262 133.868 50.5052 133.868 44.2872C133.868 40.257 133.335 37.4359 132.27 35.8239C131.205 34.0966 129.279 33.233 126.493 33.233C123.625 33.233 120.635 34.6148 117.521 37.3784C114.489 40.0267 111.949 43.6539 109.9 48.2598C107.852 52.8657 106.827 58.0473 106.827 63.8047C106.827 65.0713 106.745 66.2804 106.582 67.4318Z" fill="#8B2C2C" fill-opacity="0.2"/>
<path d="M170.394 120.112C165.745 120.112 162.08 117.467 159.401 112.176C156.721 106.886 155.382 100.009 155.382 91.5446C155.382 88.488 155.658 85.2551 156.209 81.8458C156.84 78.319 157.628 75.1448 158.573 72.3234C158.022 71.5004 157.588 70.3836 157.273 68.9729C156.958 67.4446 156.8 65.5636 156.8 63.33C156.8 56.3939 157.588 50.0456 159.164 44.2851C160.741 38.5247 162.829 33.5283 165.43 29.2961C168.03 24.9464 170.907 21.5959 174.059 19.2447C177.29 16.8935 180.56 15.7179 183.87 15.7179C189.308 15.7179 193.721 18.6569 197.11 24.5349C200.499 30.2954 202.193 39.1125 202.193 50.9861C202.193 57.2168 201.562 63.5651 200.301 70.0309C199.119 76.4968 197.464 82.7275 195.337 88.7231C193.288 94.7187 190.884 100.068 188.126 104.77C185.446 109.473 182.57 113.235 179.497 116.056C176.502 118.76 173.468 120.112 170.394 120.112ZM166.375 66.3278C166.848 67.2683 167.085 68.5027 167.085 70.0309C167.085 71.7944 166.848 73.5578 166.375 75.3212C165.981 77.0846 165.548 79.4946 165.075 82.5512C164.602 85.6077 164.366 89.9575 164.366 95.6004C164.366 101.243 165.863 104.065 168.858 104.065C172.168 104.065 175.241 102.125 178.078 98.2455C180.915 94.2485 183.437 89.1346 185.643 82.9039C187.85 76.6731 189.544 70.031 190.727 62.9773C191.987 55.8061 192.618 49.0463 192.618 42.6981C192.618 38.5834 192.106 35.7032 191.081 34.0573C190.057 32.2939 188.205 31.4122 185.525 31.4122C182.767 31.4122 179.891 32.823 176.896 35.6444C173.98 38.3483 171.537 42.0515 169.567 46.7539C167.597 51.4563 166.612 56.7466 166.612 62.6246C166.612 63.9178 166.533 65.1522 166.375 66.3278Z" fill="#8B2C2C" fill-opacity="0.2"/>
<path d="M210.97 66.2999C209.202 66.1286 208.384 64.63 208.515 61.804C208.58 61.119 208.94 60.3054 209.595 59.3634C210.25 58.3358 211.003 57.7792 211.854 57.6936C213.884 57.4367 216.372 57.0513 219.319 56.5375C222.331 55.9381 225.638 55.253 229.239 54.4823C229.894 50.2862 230.68 45.876 231.596 41.2517C232.513 36.6274 233.528 32.1316 234.641 27.7642C235.754 23.3112 236.933 19.2864 238.177 15.6897C239.421 12.0931 240.731 9.26714 242.106 7.21191C242.826 6.26993 243.481 5.62767 244.07 5.28513C244.66 4.85696 245.183 4.64287 245.642 4.64287C246.558 4.64287 247.279 5.15668 247.803 6.18429C248.392 7.21191 248.687 8.36798 248.687 9.6525C248.687 10.3376 248.588 11.0227 248.392 11.7077C247.082 16.5033 245.674 22.4121 244.168 29.4341C242.662 36.4562 241.058 44.1205 239.356 52.427C245.38 51.1425 251.404 49.7724 257.428 48.3166C263.452 46.8608 268.625 45.5334 272.947 44.3346C274.191 43.6495 275.141 43.7779 275.795 44.7199C276.516 45.6619 276.876 46.6039 276.876 47.5459C276.876 48.7447 276.614 49.6439 276.09 50.2433C275.632 50.8428 275.141 51.3566 274.617 51.7848L274.518 51.9132C273.209 52.5983 271.244 53.4118 268.625 54.3538C266.006 55.2102 262.994 56.1521 259.589 57.1798C256.184 58.1217 252.55 59.0637 248.687 60.0057C244.889 60.9477 241.124 61.804 237.391 62.5747C235.885 70.1106 234.346 77.8605 232.775 85.8246C231.269 93.703 229.763 101.453 228.257 109.074C227.602 112.157 226.849 114.084 225.998 114.855C225.212 115.711 224.361 116.139 223.444 116.139C222.396 116.139 221.48 115.625 220.694 114.598C219.974 113.57 219.875 111.472 220.399 108.304L227.569 64.5015C223.64 65.2722 220.17 65.8289 217.158 66.1714C214.211 66.514 212.149 66.5568 210.97 66.2999Z" fill="#8B2C2C" fill-opacity="0.2"/>
<path d="M261.111 117.456C259.518 117.456 258.288 116.918 257.419 115.841C256.551 114.846 256.117 112.319 256.117 108.259C256.117 104.53 256.696 99.6826 257.854 93.7166C259.012 87.6677 260.568 80.9559 262.522 73.5812C264.476 66.2065 266.684 58.5832 269.145 50.7114C271.606 42.7566 274.175 34.9676 276.853 27.3444C279.604 19.6382 282.246 12.595 284.779 6.21463C285.72 3.8945 286.697 2.2787 287.71 1.36722C288.724 0.455739 289.918 0 291.293 0C292.234 0 293.03 0.331448 293.681 0.994343C294.405 1.57437 294.767 2.56871 294.767 3.97736C294.767 4.47453 294.297 6.09033 293.356 8.82477C292.487 11.5592 291.257 15.1637 289.664 19.6382C288.144 24.1127 286.444 29.1259 284.562 34.6776C282.68 40.2293 280.762 46.0711 278.808 52.2029C276.853 58.3346 275.008 64.5078 273.271 70.7225C271.533 76.8542 270.05 82.7374 268.819 88.372C267.589 94.0066 266.756 99.0611 266.322 103.536C268.059 101.133 270.05 98.0668 272.293 94.338C274.537 90.6093 276.926 86.5905 279.459 82.2817C281.992 77.9728 284.562 73.7055 287.167 69.4795C289.773 65.2536 292.342 61.4005 294.876 57.9203C297.409 54.4401 299.761 51.6643 301.933 49.5927C304.176 47.4383 306.131 46.3611 307.795 46.3611C310.546 46.3611 312.753 47.3554 314.418 49.3441C316.155 51.25 317.024 54.3987 317.024 58.7904C317.024 61.2762 316.59 64.2592 315.721 67.7394C314.925 71.2196 313.984 74.8655 312.898 78.6772C311.812 82.4888 310.835 86.1347 309.967 89.6149C309.171 93.0951 308.773 96.0781 308.773 98.564C308.773 101.961 309.894 103.66 312.138 103.66C315.612 103.66 319.087 102.79 322.561 101.05C326.107 99.3097 329.473 97.1553 332.658 94.5866C335.842 91.935 338.774 89.2835 341.452 86.6319C344.13 83.8975 346.41 81.5773 348.292 79.6715C350.318 77.6 352.019 76.5642 353.394 76.5642C355.131 76.5642 356 77.6 356 79.6715C356 80.2515 355.891 80.9144 355.674 81.6602C355.457 82.4059 354.878 83.3588 353.937 84.5189C352.779 86.0104 351.114 87.9577 348.943 90.3607C346.844 92.7636 344.383 95.3324 341.56 98.0668C338.81 100.801 335.806 103.37 332.549 105.773C329.364 108.176 326.071 110.165 322.669 111.739C319.34 113.23 316.083 113.976 312.898 113.976C308.555 113.976 305.19 112.568 302.801 109.75C300.485 106.85 299.327 102.873 299.327 97.8182C299.327 94.6695 299.761 90.8578 300.63 86.3833C301.498 81.9088 302.584 77.1857 303.887 72.214C305.262 67.1594 306.637 62.2291 308.013 57.4231C305.696 59.2461 303.163 61.9805 300.413 65.6265C297.735 69.1895 294.912 73.2497 291.944 77.8071C288.977 82.2816 286.009 86.8391 283.042 91.4793C280.147 96.1196 277.324 100.428 274.573 104.406C271.895 108.3 269.398 111.449 267.082 113.852C264.766 116.255 262.776 117.456 261.111 117.456Z" fill="#8B2C2C" fill-opacity="0.2"/>
</svg>
